{
  "accessors": [
    {
      "bufferView": 2,
      "componentType": 5126,
      "count": 1305,
      "max": [
        0.70730006694793701,
        8.9816951751708984,
        0.69558697938919067
      ],
      "min": [
        -0.68442106246948242,
        1.2058868408203125,
        -0.71257597208023071
      ],
      "type": "VEC3"
    },
    {
      "bufferView": 2,
      "byteOffset": 15660,
      "componentType": 5126,
      "count": 1305,
      "max": [
        1,
        1,
        1
      ],
      "min": [
        -1,
        -1,
        -1
      ],
      "type": "VEC3"
    },
    {
      "bufferView": 3,
      "componentType": 5126,
      "count": 1305,
      "max": [
        1,
        0.99813550710678101,
        1,
        1
      ],
      "min": [
        -1,
        -0.99988991022109985,
        -1,
        -1
      ],
      "type": "VEC4"
    },
    {
      "bufferView": 1,
      "componentType": 5126,
      "count": 1305,
      "max": [
        0.97508800029754639,
        0.97760200500488281
      ],
      "min": [
        0.033185001462697983,
        0.028562009334564209
      ],
      "type": "VEC2"
    },
    {
      "bufferView": 1,
      "byteOffset": 10440,
      "componentType": 5126,
      "count": 1305,
      "max": [
        0.97508800029754639,
        0.97760200500488281
      ],
      "min": [
        0.033185001462697983,
        0.028562009334564209
      ],
      "type": "VEC2"
    },
    {
      "bufferView": 1,
      "byteOffset": 20880,
      "componentType": 5126,
      "count": 1305,
      "max": [
        0.97508800029754639,
        0.97760200500488281
      ],
      "min": [
        0.033185001462697983,
        0.028562009334564209
      ],
      "type": "VEC2"
    },
    {
      "bufferView": 1,
      "byteOffset": 31320,
      "componentType": 5126,
      "count": 1305,
      "max": [
        0.97508800029754639,
        0.97760200500488281
      ],
      "min": [
        0.033185001462697983,
        0.028562009334564209
      ],
      "type": "VEC2"
    },
    {
      "bufferView": 1,
      "byteOffset": 41760,
      "componentType": 5126,
      "count": 1305,
      "max": [
        0.97508800029754639,
        0.97760200500488281
      ],
      "min": [
        0.033185001462697983,
        0.028562009334564209
      ],
      "type": "VEC2"
    },
    {
      "bufferView": 0,
      "componentType": 5125,
      "count": 6744,
      "max": [
        1304
      ],
      "min": [
        0
      ],
      "type": "SCALAR"
    }
  ],
  "asset": {
    "extras": {
      "author": "varun pal (https://sketchfab.com/lovepal123456789)",
      "license": "CC-BY-4.0 (http://creativecommons.org/licenses/by/4.0/)",
      "source": "https://sketchfab.com/3d-models/magic-stick-2aa25ad533894199895b8c64ae1fd19f",
      "title": "Magic stick"
    },
    "generator": "Sketchfab-9.41.1",
    "version": "2.0"
  },
  "bufferViews": [
    {
      "buffer": 0,
      "byteLength": 26976,
      "byteOffset": 0,
      "name": "floatBufferViews",
      "target": 34963
    },
    {
      "buffer": 0,
      "byteLength": 52200,
      "byteOffset": 26976,
      "byteStride": 8,
      "name": "floatBufferViews",
      "target": 34962
    },
    {
      "buffer": 0,
      "byteLength": 31320,
      "byteOffset": 79176,
      "byteStride": 12,
      "name": "floatBufferViews",
      "target": 34962
    },
    {
      "buffer": 0,
      "byteLength": 20880,
      "byteOffset": 110496,
      "byteStride": 16,
      "name": "floatBufferViews",
      "target": 34962
    }
  ],
  "buffers": [
    {
      "byteLength": 131376,
      "uri": "scene.bin"
    }
  ],
  "images": [
    {
      "uri": "textures/initialShadingGroup_baseColor.png"
    },
    {
      "uri": "textures/initialShadingGroup_metallicRoughness.png"
    },
    {
      "uri": "textures/initialShadingGroup_normal.png"
    }
  ],
  "materials": [
    {
      "doubleSided": false,
      "emissiveFactor": [
        0,
        0,
        0
      ],
      "name": "initialShadingGroup",
      "normalTexture": {
        "index": 2,
        "scale": 1,
        "texCoord": 0
      },
      "occlusionTexture": {
        "index": 1,
        "strength": 1,
        "texCoord": 0
      },
      "pbrMetallicRoughness": {
        "baseColorFactor": [
          1,
          1,
          1,
          1
        ],
        "baseColorTexture": {
          "index": 0,
          "texCoord": 0
        },
        "metallicFactor": 1,
        "metallicRoughnessTexture": {
          "index": 1,
          "texCoord": 0
        },
        "roughnessFactor": 1
      }
    }
  ],
  "meshes": [
    {
      "primitives": [
        {
          "attributes": {
            "NORMAL": 1,
            "POSITION": 0,
            "TANGENT": 2,
            "TEXCOORD_0": 3,
            "TEXCOORD_1": 4,
            "TEXCOORD_2": 5,
            "TEXCOORD_3": 6,
            "TEXCOORD_4": 7
          },
          "indices": 8,
          "material": 0,
          "mode": 4
        }
      ]
    }
  ],
  "nodes": [
    {
      "children": [
        1
      ],
      "name": "RootNode (gltf orientation matrix)",
      "rotation": [
        -0.70710678118654746,
        -0,
        -0,
        0.70710678118654757
      ]
    },
    {
      "children": [
        2
      ],
      "name": "RootNode (model correction matrix)"
    },
    {
      "children": [
        3
      ],
      "name": "root"
    },
    {
      "children": [
        4
      ],
      "matrix": [
        1,
        0,
        0,
        0,
        0,
        2.2204460492503131e-16,
        1,
        0,
        0,
        -1,
        2.2204460492503131e-16,
        0,
        0,
        0,
        0,
        1
      ],
      "name": "GLTF_SceneRootNode"
    },
    {
      "children": [
        5
      ],
      "name": "stick.obj_0"
    },
    {
      "children": [
        6
      ],
      "name": "pCylinder2_1"
    },
    {
      "children": [
        7
      ],
      "name": "pCylinder2_2"
    },
    {
      "mesh": 0,
      "name": ""
    }
  ],
  "samplers": [
    {
      "magFilter": 9729,
      "minFilter": 9987,
      "wrapS": 10497,
      "wrapT": 10497
    }
  ],
  "scene": 0,
  "scenes": [
    {
      "name": "OSG_Scene",
      "nodes": [
        0
      ]
    }
  ],
  "textures": [
    {
      "sampler": 0,
      "source": 0
    },
    {
      "sampler": 0,
      "source": 1
    },
    {
      "sampler": 0,
      "source": 2
    }
  ]
}

